<mxfile host="Electron" modified="2024-01-14T20:13:52.243Z" agent="Mozilla/5.0 (Windows NT 10.0; Win64; x64) AppleWebKit/537.36 (KHTML, like Gecko) draw.io/22.1.16 Chrome/120.0.6099.109 Electron/28.1.0 Safari/537.36" etag="HzOeEQezPDxGXShfI4cn" version="22.1.16" type="device">
  <diagram name="Page-1" id="tkHbNHpttvlnIme9pOac">
    <mxGraphModel dx="1434" dy="844" grid="0" gridSize="10" guides="1" tooltips="1" connect="1" arrows="1" fold="1" page="1" pageScale="1" pageWidth="1169" pageHeight="827" math="0" shadow="0">
      <root>
        <mxCell id="0" />
        <mxCell id="1" parent="0" />
        <mxCell id="g1mjhMSGrlBjbSKQTRN9-1" value="S1" style="sketch=0;points=[[0.015,0.015,0],[0.985,0.015,0],[0.985,0.985,0],[0.015,0.985,0],[0.25,0,0],[0.5,0,0],[0.75,0,0],[1,0.25,0],[1,0.5,0],[1,0.75,0],[0.75,1,0],[0.5,1,0],[0.25,1,0],[0,0.75,0],[0,0.5,0],[0,0.25,0]];verticalLabelPosition=bottom;html=1;verticalAlign=top;aspect=fixed;align=center;pointerEvents=1;shape=mxgraph.cisco19.rect;prIcon=l2_switch;fillColor=#FAFAFA;strokeColor=#005073;" parent="1" vertex="1">
          <mxGeometry x="522" y="300" width="50" height="50" as="geometry" />
        </mxCell>
        <mxCell id="g1mjhMSGrlBjbSKQTRN9-10" style="edgeStyle=orthogonalEdgeStyle;rounded=0;orthogonalLoop=1;jettySize=auto;html=1;endArrow=none;endFill=0;entryX=0.667;entryY=0.042;entryDx=0;entryDy=0;entryPerimeter=0;" parent="1" source="g1mjhMSGrlBjbSKQTRN9-2" target="g1mjhMSGrlBjbSKQTRN9-4" edge="1">
          <mxGeometry relative="1" as="geometry">
            <mxPoint x="482" y="530" as="targetPoint" />
          </mxGeometry>
        </mxCell>
        <mxCell id="g1mjhMSGrlBjbSKQTRN9-11" style="edgeStyle=orthogonalEdgeStyle;rounded=0;orthogonalLoop=1;jettySize=auto;html=1;endArrow=none;endFill=0;entryX=0.647;entryY=0.042;entryDx=0;entryDy=0;entryPerimeter=0;" parent="1" source="g1mjhMSGrlBjbSKQTRN9-2" target="g1mjhMSGrlBjbSKQTRN9-3" edge="1">
          <mxGeometry relative="1" as="geometry">
            <Array as="points">
              <mxPoint x="612" y="445" />
              <mxPoint x="612" y="532" />
            </Array>
          </mxGeometry>
        </mxCell>
        <mxCell id="g1mjhMSGrlBjbSKQTRN9-2" value="" style="sketch=0;points=[[0.015,0.015,0],[0.985,0.015,0],[0.985,0.985,0],[0.015,0.985,0],[0.25,0,0],[0.5,0,0],[0.75,0,0],[1,0.25,0],[1,0.5,0],[1,0.75,0],[0.75,1,0],[0.5,1,0],[0.25,1,0],[0,0.75,0],[0,0.5,0],[0,0.25,0]];verticalLabelPosition=bottom;html=1;verticalAlign=top;aspect=fixed;align=center;pointerEvents=1;shape=mxgraph.cisco19.rect;prIcon=l2_switch;fillColor=#FAFAFA;strokeColor=#005073;" parent="1" vertex="1">
          <mxGeometry x="522" y="420" width="50" height="50" as="geometry" />
        </mxCell>
        <mxCell id="g1mjhMSGrlBjbSKQTRN9-3" value="&lt;b&gt;D3&lt;/b&gt;" style="image;points=[];aspect=fixed;html=1;align=center;shadow=0;dashed=0;image=img/lib/allied_telesis/computer_and_terminals/Server_Desktop.svg;" parent="1" vertex="1">
          <mxGeometry x="582" y="530" width="42.599999999999994" height="54" as="geometry" />
        </mxCell>
        <mxCell id="g1mjhMSGrlBjbSKQTRN9-4" value="&lt;b&gt;D2&lt;/b&gt;" style="image;points=[];aspect=fixed;html=1;align=center;shadow=0;dashed=0;image=img/lib/allied_telesis/computer_and_terminals/Server_Desktop.svg;" parent="1" vertex="1">
          <mxGeometry x="452" y="530" width="42.599999999999994" height="54" as="geometry" />
        </mxCell>
        <mxCell id="g1mjhMSGrlBjbSKQTRN9-7" value="" style="sketch=0;outlineConnect=0;fontColor=#232F3E;gradientColor=none;fillColor=#232F3D;strokeColor=none;dashed=0;verticalLabelPosition=bottom;verticalAlign=top;align=center;html=1;fontSize=12;fontStyle=0;aspect=fixed;pointerEvents=1;shape=mxgraph.aws4.client;" parent="1" vertex="1">
          <mxGeometry x="525" y="190" width="44" height="42.87" as="geometry" />
        </mxCell>
        <mxCell id="g1mjhMSGrlBjbSKQTRN9-8" style="edgeStyle=orthogonalEdgeStyle;rounded=0;orthogonalLoop=1;jettySize=auto;html=1;entryX=0.5;entryY=0;entryDx=0;entryDy=0;endArrow=none;endFill=0;entryPerimeter=0;" parent="1" target="g1mjhMSGrlBjbSKQTRN9-1" edge="1">
          <mxGeometry relative="1" as="geometry">
            <mxPoint x="546.71" y="232.87" as="sourcePoint" />
            <mxPoint x="546.71" y="282.87" as="targetPoint" />
          </mxGeometry>
        </mxCell>
        <mxCell id="g1mjhMSGrlBjbSKQTRN9-9" style="edgeStyle=orthogonalEdgeStyle;rounded=0;orthogonalLoop=1;jettySize=auto;html=1;entryX=0.5;entryY=0;entryDx=0;entryDy=0;endArrow=none;endFill=0;entryPerimeter=0;" parent="1" target="g1mjhMSGrlBjbSKQTRN9-2" edge="1">
          <mxGeometry relative="1" as="geometry">
            <mxPoint x="546.71" y="350" as="sourcePoint" />
            <mxPoint x="546.71" y="400" as="targetPoint" />
          </mxGeometry>
        </mxCell>
        <mxCell id="g1mjhMSGrlBjbSKQTRN9-12" value="eth2" style="rounded=1;whiteSpace=wrap;html=1;fillColor=#f5f5f5;fontColor=#333333;strokeColor=#666666;" parent="1" vertex="1">
          <mxGeometry x="527" y="280" width="40" height="20" as="geometry" />
        </mxCell>
        <mxCell id="g1mjhMSGrlBjbSKQTRN9-14" value="eth1" style="rounded=1;whiteSpace=wrap;html=1;fillColor=#f5f5f5;fontColor=#333333;strokeColor=#666666;" parent="1" vertex="1">
          <mxGeometry x="529" y="350" width="40" height="20" as="geometry" />
        </mxCell>
        <mxCell id="g1mjhMSGrlBjbSKQTRN9-15" value="eth2" style="rounded=1;whiteSpace=wrap;html=1;fillColor=#f5f5f5;fontColor=#333333;strokeColor=#666666;" parent="1" vertex="1">
          <mxGeometry x="482" y="450" width="40" height="20" as="geometry" />
        </mxCell>
        <mxCell id="g1mjhMSGrlBjbSKQTRN9-16" value="eth1" style="rounded=1;whiteSpace=wrap;html=1;fillColor=#f5f5f5;fontColor=#333333;strokeColor=#666666;" parent="1" vertex="1">
          <mxGeometry x="527" y="400" width="40" height="20" as="geometry" />
        </mxCell>
        <mxCell id="g1mjhMSGrlBjbSKQTRN9-17" value="eth3" style="rounded=1;whiteSpace=wrap;html=1;fillColor=#f5f5f5;fontColor=#333333;strokeColor=#666666;" parent="1" vertex="1">
          <mxGeometry x="572" y="450" width="40" height="20" as="geometry" />
        </mxCell>
        <mxCell id="g1mjhMSGrlBjbSKQTRN9-20" value="&lt;b&gt;D1&lt;/b&gt;" style="text;html=1;strokeColor=none;fillColor=none;align=center;verticalAlign=middle;whiteSpace=wrap;rounded=0;" parent="1" vertex="1">
          <mxGeometry x="552" y="190" width="60" height="30" as="geometry" />
        </mxCell>
        <mxCell id="g1mjhMSGrlBjbSKQTRN9-21" value="&lt;b&gt;S1&lt;/b&gt;" style="text;html=1;strokeColor=none;fillColor=none;align=center;verticalAlign=middle;whiteSpace=wrap;rounded=0;" parent="1" vertex="1">
          <mxGeometry x="552" y="310" width="60" height="30" as="geometry" />
        </mxCell>
        <mxCell id="g1mjhMSGrlBjbSKQTRN9-22" value="&lt;b&gt;S2&lt;/b&gt;" style="text;html=1;strokeColor=none;fillColor=none;align=center;verticalAlign=middle;whiteSpace=wrap;rounded=0;" parent="1" vertex="1">
          <mxGeometry x="517" y="470" width="60" height="30" as="geometry" />
        </mxCell>
        <mxCell id="g1mjhMSGrlBjbSKQTRN9-24" value="eth0" style="rounded=1;whiteSpace=wrap;html=1;fillColor=#f5f5f5;fontColor=#333333;strokeColor=#666666;" parent="1" vertex="1">
          <mxGeometry x="527" y="232.87" width="40" height="20" as="geometry" />
        </mxCell>
      </root>
    </mxGraphModel>
  </diagram>
</mxfile>
